<svg id="Layer_1" data-name="Layer 1" xmlns="http://www.w3.org/2000/svg" xmlns:xlink="http://www.w3.org/1999/xlink" viewBox="0 0 1595.89 2302.23"><defs><style>.cls-1{fill:url(#linear-gradient);}.cls-2{opacity:0.1;}.cls-3{fill:url(#linear-gradient-2);}.cls-4{fill:url(#linear-gradient-3);}.cls-5{fill:url(#linear-gradient-4);}.cls-6{fill:url(#linear-gradient-5);}.cls-7{fill:url(#linear-gradient-6);}.cls-8{fill:url(#linear-gradient-7);}.cls-9{fill:url(#linear-gradient-8);}.cls-10{fill:url(#linear-gradient-9);}.cls-11{fill:url(#linear-gradient-10);}</style><linearGradient id="linear-gradient" x1="-0.18" y1="2258.36" x2="1125" y2="2258.36" gradientUnits="userSpaceOnUse"><stop offset="0" stop-color="#e011b3"/><stop offset="1" stop-color="#430634"/></linearGradient><linearGradient id="linear-gradient-2" x1="-51.26" y1="458.57" x2="-51.26" y2="1184.62" xlink:href="#linear-gradient"/><linearGradient id="linear-gradient-3" x1="1053.97" y1="868.62" x2="1053.97" y2="1406" xlink:href="#linear-gradient"/><linearGradient id="linear-gradient-4" x1="192.75" y1="1251.11" x2="192.75" y2="1395.62" xlink:href="#linear-gradient"/><linearGradient id="linear-gradient-5" x1="707.25" y1="402.1" x2="707.25" y2="561.38" xlink:href="#linear-gradient"/><linearGradient id="linear-gradient-6" x1="824.46" y1="1707.78" x2="824.46" y2="1866.96" xlink:href="#linear-gradient"/><linearGradient id="linear-gradient-7" x1="703.37" y1="1025.15" x2="703.37" y2="1108.84" xlink:href="#linear-gradient"/><linearGradient id="linear-gradient-8" x1="409.04" y1="1783.62" x2="409.04" y2="1867.33" xlink:href="#linear-gradient"/><linearGradient id="linear-gradient-9" x1="645.81" y1="133.77" x2="645.81" y2="214.64" xlink:href="#linear-gradient"/><linearGradient id="linear-gradient-10" x1="343.98" y1="227.6" x2="343.98" y2="308.46" xlink:href="#linear-gradient"/></defs><path class="cls-1" d="M1105.73,2241.14c-27,23.76-54.77,46.49-86.24,64.24-17.64,9.95-36.1,17.74-56.36,20.36-32.8,4.26-59.78-8-83.22-29.87-18.54-17.28-32.69-38.14-47.32-58.62-18.45-25.82-36.7-51.81-55.72-77.21-9.36-12.5-20.62-23.48-34.32-31.51-14.7-8.62-30.26-10.6-46.59-5.78-15.52,4.59-28.26,13.84-40,24.64-21.35,19.7-37.93,43.28-53.93,67.26-20.7,31-40.81,62.44-61.84,93.23-11.36,16.64-24.45,32-41,44-21.15,15.29-43.64,17.16-67.33,6.65-23.17-10.28-41.55-26.91-58.72-45-17-17.85-33.26-36.38-50.18-54.3-12.29-13-25.41-25.11-41.23-33.95-17.87-10-35.66-10-52.64,1.22-11.84,7.8-22.94,16.78-34,25.68-13.25,10.65-25.77,22.26-41.4,29.53-15.27,7.11-30.41,7-43.39-4.18a180.74,180.74,0,0,1-27-28.61c-21.49-28.79-36.69-61.22-51.26-93.86-11-24.67-21.51-49.57-32.23-74.37V2436H1125V2224.49C1118.57,2230,1112.1,2235.54,1105.73,2241.14Z" transform="translate(335.74 -133.77)"/><g class="cls-2"><path class="cls-3" d="M231.44,776.27c-.9-11.1-2.73-22.2-4.61-33.25A421.68,421.68,0,0,0,213.2,686.4,421.39,421.39,0,0,0,183,614.7,358.19,358.19,0,0,0,134.77,545c-17.86-20-37.7-38.17-60.24-53.13A286.86,286.86,0,0,0,23,464.54c-6.12-2.46-12.11-6.14-19.11-6-10.35-.18-19.22,3.5-28.28,6a519.3,519.3,0,0,0-76.34,27.33A454.65,454.65,0,0,0-189.95,545a395,395,0,0,0-71.44,69.7,364.14,364.14,0,0,0-44.69,71.7A313.12,313.12,0,0,0-326.27,743c-2.78,11.05-5.49,22.15-6.82,33.25-1.07,9-3,18-2.59,27.17.44,9.76.24,19.55.06,29.32-.23,12.56,2.11,25,3.56,37.46,2.3,19.87,7.69,39.34,14.33,58.64a285.55,285.55,0,0,0,19.2,43.51,379.3,379.3,0,0,0,27.71,44.16,399.81,399.81,0,0,0,40.75,47,371.64,371.64,0,0,0,54.76,45c18.44,12.36,36.7,24.84,57.94,35,16.18,7.77,32.5,15.42,50.26,21.54,19.16,6.6,38.4,13,58.77,17.81a50.23,50.23,0,0,0,12.16,1.67H4c.54,0,1.07,0,1.6-.08h.16a28.8,28.8,0,0,0,6.35-1.58c13.76-4.76,26.76-11.21,39.69-17.81,12-6.12,23-13.77,34-21.54,14.34-10.2,26.67-22.68,39.12-35a304.47,304.47,0,0,0,37-45,397.88,397.88,0,0,0,27.53-47,438.05,438.05,0,0,0,18.71-44.16,368.22,368.22,0,0,0,13-43.51c4.48-19.3,8.12-38.77,9.67-58.64,1-12.48,2.56-24.9,2.4-37.46-.12-9.77-.25-19.56.05-29.32C233.47,794.31,232.16,785.28,231.44,776.27Z" transform="translate(335.74 -133.77)"/><path class="cls-4" d="M1260.11,1132.19c-.25-10.79-1.5-21.5-2.41-32.25a318.48,318.48,0,0,0-25-96.8,295.13,295.13,0,0,0-26.31-47.69,217.27,217.27,0,0,0-37.81-42.67c-20.73-18.18-44.46-31.54-71.19-38.89-10.16-2.79-20.63-4-31.2-5a78.48,78.48,0,0,0-12.27.07,78.34,78.34,0,0,0-12.26-.07c-10.57,1-21,2.26-31.2,5-26.73,7.35-50.46,20.71-71.2,38.89a217.91,217.91,0,0,0-37.81,42.67,295.85,295.85,0,0,0-26.3,47.69,317.71,317.71,0,0,0-25,96.8c-.91,10.75-2.17,21.46-2.41,32.25-.32,14.07,1.06,28,2.39,42a309.38,309.38,0,0,0,6.31,39.54,327.76,327.76,0,0,0,19.24,58.44c10.66,24.42,24.31,47,41.64,67,12.15,14,25.72,27,41.51,37.14a193.22,193.22,0,0,0,39.23,19.92c17.3,6.26,35,9.15,53.19,9.74.57,0,1.14,0,1.71,0h1.83c.57,0,1.14,0,1.71,0,18.17-.59,35.89-3.48,53.19-9.74a193.22,193.22,0,0,0,39.23-19.92c15.79-10.19,29.35-23.09,41.5-37.14,17.33-20,31-42.56,41.65-67a327.72,327.72,0,0,0,19.23-58.44,307.62,307.62,0,0,0,6.31-39.54C1259,1160.22,1260.42,1146.26,1260.11,1132.19Z" transform="translate(335.74 -133.77)"/><path class="cls-5" d="M277.42,1323.18c.55,16.59-5.79,30-16,42.34-13.75,16.6-32,24.85-52.38,28.53-24.57,4.45-47.78-.67-68.71-14.3-15.45-10.06-25.93-24.37-30.46-42.27-4.81-19,0-36.48,11.44-52.06,13.21-18,31.6-27.48,53.13-32,6-1.27,12.17,0,17.93-2.28,24.25,1.71,46.66,7.57,64.71,25.57a71.84,71.84,0,0,1,19.59,35.21C277.63,1315.81,277.05,1319.65,277.42,1323.18Z" transform="translate(335.74 -133.77)"/><path class="cls-6" d="M780,481.2a69,69,0,0,1-7,35.73c-10.78,22.45-27.79,38-52.72,43.06-21,4.26-39.59-1.46-56.22-14.77-15.23-12.18-24.13-28.16-27.92-46.86-4.92-24.29,0-47,14.69-66.93,10.52-14.25,24.55-24.24,42.38-27.78s34.56-1.2,50.14,8.59a76.15,76.15,0,0,1,31.47,38.43C778.52,460.61,781.18,470.87,780,481.2Z" transform="translate(335.74 -133.77)"/><path class="cls-7" d="M897.2,1787.28a67.13,67.13,0,0,1-6.89,35.08c-11.68,23.89-29.57,40-57,43.9-19.94,2.84-36.87-3.2-52.29-15.4s-24.07-28.25-27.81-46.92c-4.81-24,.06-46.56,14.5-66.38,11-15.16,26-25.52,44.72-28.67,17-2.86,33.35-.35,48.28,9.27a77.08,77.08,0,0,1,31.34,38.55C895.8,1766.67,898.35,1776.94,897.2,1787.28Z" transform="translate(335.74 -133.77)"/><path class="cls-8" d="M751.48,1067.33c1.37,16-14,31.84-25.4,36.49a61.52,61.52,0,0,1-19.33,4.92,52,52,0,0,1-32-8.48c-9.7-6.34-16.27-15-18.77-26.85a33.65,33.65,0,0,1,3.64-23.76c8.31-15.05,21.59-22.69,38.82-24.24,13.26-1.18,25.26,1.57,36,9.25C745.34,1042.52,752,1053,751.48,1067.33Z" transform="translate(335.74 -133.77)"/><path class="cls-9" d="M457.24,1823.16c0,17.19-7.76,27.53-19.34,35.6-7.64,5.32-16.49,7.81-25.5,8.44a51.31,51.31,0,0,1-32-8.47c-9.69-6.36-16.27-15-18.76-26.86a33.66,33.66,0,0,1,3.64-23.76c8.31-15,21.59-22.69,38.82-24.23,13.26-1.18,25.26,1.57,36,9.24C451,1801,457.63,1811.42,457.24,1823.16Z" transform="translate(335.74 -133.77)"/><path class="cls-10" d="M688.94,174c.91,19.29-14.51,35.84-34.09,39.62-17.91,3.46-32.9-2.34-43.57-16.28s-11.61-28.11-2.2-43.59c7.24-11.9,18.14-18.56,32.4-19.76,10.44-.89,20.38.33,28.8,6.57C682.24,149.45,689.41,157.87,688.94,174Z" transform="translate(335.74 -133.77)"/><path class="cls-11" d="M386.78,267.44c1,18.94-13.84,36.17-33.89,40.08-18,3.5-32.19-3-43.85-16.07-9.5-10.64-10.61-30.44-2.6-43.21,7.55-12,18.24-19.1,32.76-20.38,10.44-.91,20.27.41,28.84,6.48C379.43,242.41,387.68,252.59,386.78,267.44Z" transform="translate(335.74 -133.77)"/></g></svg>